
<svg xmlns="http://www.w3.org/2000/svg" data-name="Layer 4" viewBox="0 0 24 24" x="0px" y="0px">
  <g>
    <path fill="#6366f1" d="M12,22a1.017,1.017,0,0,1-.352-.063l-1.511-.567A11.052,11.052,0,0,1,3,11.07V7A1,1,0,0,1,4,6a9.045,9.045,0,0,0,7.2-3.6,1.036,1.036,0,0,1,1.6,0A9.045,9.045,0,0,0,20,6a1,1,0,0,1,1,1v4.07a11.052,11.052,0,0,1-7.137,10.3l-1.511.567A1.017,1.017,0,0,1,12,22ZM5,7.954V11.07A9.043,9.043,0,0,0,10.84,19.5l1.16.435,1.16-.435A9.043,9.043,0,0,0,19,11.07V7.954a11.074,11.074,0,0,1-7-3.406A11.074,11.074,0,0,1,5,7.954Z" />
    <path fill="#6366f1" d="M12,18a1.006,1.006,0,0,1-.338-.059l-.107-.038,0,0C8.74,16.883,7,13.266,7,10.5V9.863a1,1,0,0,1,.722-.96,13.3,13.3,0,0,0,3.72-1.734,1.007,1.007,0,0,1,1.116,0A13.3,13.3,0,0,0,16.278,8.9a1,1,0,0,1,.722.96V10.5c0,2.766-1.74,6.383-4.552,7.4l-.11.04A1.006,1.006,0,0,1,12,18ZM9,10.6c.04,1.955,1.3,4.532,3,5.33,1.7-.8,2.959-3.374,3-5.33a15.288,15.288,0,0,1-3-1.408A15.288,15.288,0,0,1,9,10.6Z" />
  </g>
  <text x="0" y="39" fill="#000000" font-size="5px" font-weight="bold" font-family="'Helvetica Neue', Helvetica, Arial-Unicode, Arial, Sans-serif">Created by KP Arts</text>
  <text x="0" y="44" fill="green" font-size="5px" font-weight="bold" font-family="'Helvetica Neue', Helvetica, Arial-Unicode, Arial, Sans-serif">from the Noun Project</text>
</svg>